<svg xmlns="http://www.w3.org/2000/svg" viewBox="0 0 1000 700" width="1000" height="700">
  <defs>
    <pattern id="grid2" width="20" height="20" patternUnits="userSpaceOnUse">
      <path d="M 20 0 L 0 0 0 20" fill="none" stroke="#E5E7EB" stroke-width="0.5"/>
    </pattern>
  </defs>

  <!-- Background -->
  <rect width="1000" height="700" fill="#FFFBEB"/>
  <rect width="1000" height="700" fill="url(#grid2)"/>

  <!-- Title -->
  <text x="500" y="40" fill="#1F2937" font-family="Arial" font-size="22" text-anchor="middle" font-weight="bold">PLANO PISO TIPO - Casona de Pilar</text>
  <text x="500" y="62" fill="#6B7280" font-family="Arial" font-size="14" text-anchor="middle">Click en cada departamento para ver detalles</text>

  <!-- Outer walls -->
  <rect x="50" y="80" width="900" height="560" fill="none" stroke="#7C2D12" stroke-width="4" rx="2"/>

  <!-- Central hallway - horizontal -->
  <rect x="50" y="310" width="900" height="80" fill="#FEF3C7" stroke="#D97706" stroke-width="2"/>
  <text x="500" y="356" fill="#D97706" font-family="Arial" font-size="14" text-anchor="middle">PASILLO CENTRAL</text>

  <!-- Elevator + stairs -->
  <rect x="440" y="320" width="60" height="60" fill="#E5E7EB" stroke="#9CA3AF" stroke-width="2" rx="4"/>
  <text x="470" y="355" fill="#6B7280" font-family="Arial" font-size="9" text-anchor="middle">ASC</text>
  <rect x="510" y="320" width="50" height="60" fill="#E5E7EB" stroke="#9CA3AF" stroke-width="2" rx="2"/>
  <text x="535" y="355" fill="#6B7280" font-family="Arial" font-size="9" text-anchor="middle">ESC</text>

  <!-- ============ DEPTO A (top-left) ============ -->
  <rect x="52" y="82" width="435" height="226" fill="#DBEAFE" stroke="#3B82F6" stroke-width="2.5" rx="2" opacity="0.6"/>

  <rect x="52" y="82" width="240" height="130" fill="none" stroke="#93C5FD" stroke-width="1" stroke-dasharray="4"/>
  <text x="172" y="155" fill="#3B82F6" font-family="Arial" font-size="11" text-anchor="middle">Living-Comedor</text>

  <rect x="292" y="82" width="100" height="70" fill="none" stroke="#93C5FD" stroke-width="1" stroke-dasharray="4"/>
  <text x="342" y="122" fill="#3B82F6" font-family="Arial" font-size="10" text-anchor="middle">Cocina</text>

  <rect x="52" y="212" width="200" height="94" fill="none" stroke="#93C5FD" stroke-width="1" stroke-dasharray="4"/>
  <text x="152" y="265" fill="#3B82F6" font-family="Arial" font-size="10" text-anchor="middle">Dormitorio</text>

  <rect x="252" y="212" width="100" height="94" fill="none" stroke="#93C5FD" stroke-width="1" stroke-dasharray="4"/>
  <text x="302" y="265" fill="#3B82F6" font-family="Arial" font-size="10" text-anchor="middle">Dormitorio 2</text>

  <rect x="392" y="82" width="93" height="60" fill="none" stroke="#93C5FD" stroke-width="1" stroke-dasharray="4"/>
  <text x="438" y="118" fill="#3B82F6" font-family="Arial" font-size="9" text-anchor="middle">Baño</text>

  <rect x="160" y="140" width="120" height="36" fill="#3B82F6" rx="8"/>
  <text x="220" y="164" fill="white" font-family="Arial" font-size="16" text-anchor="middle" font-weight="bold">DEPTO A</text>

  <!-- ============ DEPTO B (top-right) ============ -->
  <rect x="513" y="82" width="435" height="226" fill="#D1FAE5" stroke="#10B981" stroke-width="2.5" rx="2" opacity="0.6"/>

  <rect x="610" y="82" width="240" height="130" fill="none" stroke="#6EE7B7" stroke-width="1" stroke-dasharray="4"/>
  <text x="730" y="155" fill="#059669" font-family="Arial" font-size="11" text-anchor="middle">Living-Comedor</text>

  <rect x="513" y="82" width="95" height="70" fill="none" stroke="#6EE7B7" stroke-width="1" stroke-dasharray="4"/>
  <text x="560" y="122" fill="#059669" font-family="Arial" font-size="10" text-anchor="middle">Cocina</text>

  <rect x="650" y="212" width="200" height="94" fill="none" stroke="#6EE7B7" stroke-width="1" stroke-dasharray="4"/>
  <text x="750" y="265" fill="#059669" font-family="Arial" font-size="10" text-anchor="middle">Dormitorio</text>

  <rect x="513" y="212" width="135" height="94" fill="none" stroke="#6EE7B7" stroke-width="1" stroke-dasharray="4"/>
  <text x="580" y="265" fill="#059669" font-family="Arial" font-size="10" text-anchor="middle">Dormitorio 2</text>

  <rect x="850" y="82" width="96" height="60" fill="none" stroke="#6EE7B7" stroke-width="1" stroke-dasharray="4"/>
  <text x="898" y="118" fill="#059669" font-family="Arial" font-size="9" text-anchor="middle">Baño</text>

  <rect x="680" y="140" width="120" height="36" fill="#10B981" rx="8"/>
  <text x="740" y="164" fill="white" font-family="Arial" font-size="16" text-anchor="middle" font-weight="bold">DEPTO B</text>

  <!-- ============ DEPTO C (bottom-left) ============ -->
  <rect x="52" y="392" width="435" height="246" fill="#FEF3C7" stroke="#F59E0B" stroke-width="2.5" rx="2" opacity="0.6"/>

  <rect x="52" y="392" width="240" height="140" fill="none" stroke="#FCD34D" stroke-width="1" stroke-dasharray="4"/>
  <text x="172" y="468" fill="#D97706" font-family="Arial" font-size="11" text-anchor="middle">Living-Comedor</text>

  <rect x="292" y="392" width="100" height="70" fill="none" stroke="#FCD34D" stroke-width="1" stroke-dasharray="4"/>
  <text x="342" y="432" fill="#D97706" font-family="Arial" font-size="10" text-anchor="middle">Cocina</text>

  <rect x="52" y="532" width="200" height="104" fill="none" stroke="#FCD34D" stroke-width="1" stroke-dasharray="4"/>
  <text x="152" y="590" fill="#D97706" font-family="Arial" font-size="10" text-anchor="middle">Dormitorio</text>

  <rect x="392" y="392" width="93" height="60" fill="none" stroke="#FCD34D" stroke-width="1" stroke-dasharray="4"/>
  <text x="438" y="428" fill="#D97706" font-family="Arial" font-size="9" text-anchor="middle">Baño</text>

  <rect x="160" y="468" width="120" height="36" fill="#F59E0B" rx="8"/>
  <text x="220" y="492" fill="white" font-family="Arial" font-size="16" text-anchor="middle" font-weight="bold">DEPTO C</text>

  <!-- ============ DEPTO D (bottom-right) ============ -->
  <rect x="513" y="392" width="435" height="246" fill="#FCE7F3" stroke="#EC4899" stroke-width="2.5" rx="2" opacity="0.6"/>

  <rect x="610" y="392" width="240" height="140" fill="none" stroke="#F9A8D4" stroke-width="1" stroke-dasharray="4"/>
  <text x="730" y="468" fill="#DB2777" font-family="Arial" font-size="11" text-anchor="middle">Living-Comedor</text>

  <rect x="513" y="392" width="95" height="70" fill="none" stroke="#F9A8D4" stroke-width="1" stroke-dasharray="4"/>
  <text x="560" y="432" fill="#DB2777" font-family="Arial" font-size="10" text-anchor="middle">Cocina</text>

  <rect x="650" y="532" width="200" height="104" fill="none" stroke="#F9A8D4" stroke-width="1" stroke-dasharray="4"/>
  <text x="750" y="590" fill="#DB2777" font-family="Arial" font-size="10" text-anchor="middle">Dormitorio</text>

  <rect x="850" y="392" width="96" height="60" fill="none" stroke="#F9A8D4" stroke-width="1" stroke-dasharray="4"/>
  <text x="898" y="428" fill="#DB2777" font-family="Arial" font-size="9" text-anchor="middle">Baño</text>

  <rect x="680" y="468" width="120" height="36" fill="#EC4899" rx="8"/>
  <text x="740" y="492" fill="white" font-family="Arial" font-size="16" text-anchor="middle" font-weight="bold">DEPTO D</text>

</svg>
