<svg xmlns="http://www.w3.org/2000/svg" viewBox="0 0 1000 700" width="1000" height="700">
  <defs>
    <pattern id="grid" width="20" height="20" patternUnits="userSpaceOnUse">
      <path d="M 20 0 L 0 0 0 20" fill="none" stroke="#E5E7EB" stroke-width="0.5"/>
    </pattern>
  </defs>

  <!-- Background -->
  <rect width="1000" height="700" fill="#F9FAFB"/>
  <rect width="1000" height="700" fill="url(#grid)"/>

  <!-- Title -->
  <text x="500" y="40" fill="#1F2937" font-family="Arial" font-size="22" text-anchor="middle" font-weight="bold">PLANO PISO TIPO - Torre Palermo Soho</text>
  <text x="500" y="62" fill="#6B7280" font-family="Arial" font-size="14" text-anchor="middle">Escala orientativa - Click en cada departamento para ver detalles</text>

  <!-- Outer walls -->
  <rect x="50" y="80" width="900" height="560" fill="none" stroke="#374151" stroke-width="4" rx="2"/>

  <!-- Central hallway -->
  <rect x="420" y="80" width="160" height="560" fill="#F3F4F6" stroke="#9CA3AF" stroke-width="2"/>
  <text x="500" y="370" fill="#9CA3AF" font-family="Arial" font-size="14" text-anchor="middle" transform="rotate(-90, 500, 370)">PASILLO</text>

  <!-- Elevator -->
  <rect x="460" y="300" width="80" height="80" fill="#E5E7EB" stroke="#9CA3AF" stroke-width="2" rx="4"/>
  <text x="500" y="345" fill="#6B7280" font-family="Arial" font-size="11" text-anchor="middle">ASCENSOR</text>

  <!-- Stairs -->
  <rect x="460" y="400" width="80" height="60" fill="#E5E7EB" stroke="#9CA3AF" stroke-width="2" rx="2"/>
  <text x="500" y="435" fill="#6B7280" font-family="Arial" font-size="10" text-anchor="middle">ESCALERA</text>

  <!-- ============ DEPTO A (top-left) ============ -->
  <rect x="52" y="82" width="366" height="270" fill="#DBEAFE" stroke="#3B82F6" stroke-width="2.5" rx="2" opacity="0.6"/>

  <!-- Rooms inside Depto A -->
  <!-- Living-comedor -->
  <rect x="52" y="82" width="200" height="150" fill="none" stroke="#93C5FD" stroke-width="1" stroke-dasharray="4"/>
  <text x="152" y="165" fill="#3B82F6" font-family="Arial" font-size="11" text-anchor="middle">Living-Comedor</text>

  <!-- Cocina -->
  <rect x="252" y="82" width="100" height="80" fill="none" stroke="#93C5FD" stroke-width="1" stroke-dasharray="4"/>
  <text x="302" y="128" fill="#3B82F6" font-family="Arial" font-size="10" text-anchor="middle">Cocina</text>

  <!-- Dormitorio 1 -->
  <rect x="52" y="232" width="130" height="118" fill="none" stroke="#93C5FD" stroke-width="1" stroke-dasharray="4"/>
  <text x="117" y="298" fill="#3B82F6" font-family="Arial" font-size="10" text-anchor="middle">Dormitorio 1</text>

  <!-- Dormitorio 2 -->
  <rect x="182" y="232" width="120" height="118" fill="none" stroke="#93C5FD" stroke-width="1" stroke-dasharray="4"/>
  <text x="242" y="298" fill="#3B82F6" font-family="Arial" font-size="10" text-anchor="middle">Dormitorio 2</text>

  <!-- Baño A -->
  <rect x="302" y="162" width="65" height="60" fill="none" stroke="#93C5FD" stroke-width="1" stroke-dasharray="4"/>
  <text x="334" y="198" fill="#3B82F6" font-family="Arial" font-size="9" text-anchor="middle">Baño</text>

  <!-- Balcón A -->
  <rect x="52" y="82" width="200" height="20" fill="#BFDBFE" stroke="#3B82F6" stroke-width="1"/>
  <text x="152" y="96" fill="#3B82F6" font-family="Arial" font-size="9" text-anchor="middle">Balcón</text>

  <!-- Label Depto A -->
  <rect x="130" y="170" width="120" height="36" fill="#3B82F6" rx="8"/>
  <text x="190" y="194" fill="white" font-family="Arial" font-size="16" text-anchor="middle" font-weight="bold">DEPTO A</text>

  <!-- ============ DEPTO B (top-right) ============ -->
  <rect x="582" y="82" width="366" height="270" fill="#FEF3C7" stroke="#F59E0B" stroke-width="2.5" rx="2" opacity="0.6"/>

  <!-- Living -->
  <rect x="648" y="82" width="200" height="150" fill="none" stroke="#FCD34D" stroke-width="1" stroke-dasharray="4"/>
  <text x="748" y="165" fill="#D97706" font-family="Arial" font-size="11" text-anchor="middle">Living-Comedor</text>

  <!-- Cocina B -->
  <rect x="582" y="82" width="65" height="80" fill="none" stroke="#FCD34D" stroke-width="1" stroke-dasharray="4"/>
  <text x="614" y="128" fill="#D97706" font-family="Arial" font-size="10" text-anchor="middle">Cocina</text>

  <!-- Dormitorio B -->
  <rect x="582" y="232" width="180" height="118" fill="none" stroke="#FCD34D" stroke-width="1" stroke-dasharray="4"/>
  <text x="672" y="298" fill="#D97706" font-family="Arial" font-size="10" text-anchor="middle">Dormitorio</text>

  <!-- Baño B -->
  <rect x="582" y="162" width="65" height="60" fill="none" stroke="#FCD34D" stroke-width="1" stroke-dasharray="4"/>
  <text x="614" y="198" fill="#D97706" font-family="Arial" font-size="9" text-anchor="middle">Baño</text>

  <!-- Balcón B -->
  <rect x="648" y="82" width="200" height="20" fill="#FDE68A" stroke="#F59E0B" stroke-width="1"/>
  <text x="748" y="96" fill="#D97706" font-family="Arial" font-size="9" text-anchor="middle">Balcón</text>

  <!-- Label Depto B -->
  <rect x="700" y="170" width="120" height="36" fill="#F59E0B" rx="8"/>
  <text x="760" y="194" fill="white" font-family="Arial" font-size="16" text-anchor="middle" font-weight="bold">DEPTO B</text>

  <!-- ============ DEPTO C (bottom-left) ============ -->
  <rect x="52" y="354" width="366" height="284" fill="#D1FAE5" stroke="#10B981" stroke-width="2.5" rx="2" opacity="0.6"/>

  <!-- Living C -->
  <rect x="52" y="354" width="220" height="160" fill="none" stroke="#6EE7B7" stroke-width="1" stroke-dasharray="4"/>
  <text x="162" y="440" fill="#059669" font-family="Arial" font-size="11" text-anchor="middle">Living-Comedor</text>

  <!-- Cocina C -->
  <rect x="272" y="354" width="80" height="80" fill="none" stroke="#6EE7B7" stroke-width="1" stroke-dasharray="4"/>
  <text x="312" y="400" fill="#059669" font-family="Arial" font-size="10" text-anchor="middle">Cocina</text>

  <!-- Dormitorio 1 C -->
  <rect x="52" y="514" width="150" height="122" fill="none" stroke="#6EE7B7" stroke-width="1" stroke-dasharray="4"/>
  <text x="127" y="582" fill="#059669" font-family="Arial" font-size="10" text-anchor="middle">Dormitorio 1</text>

  <!-- Dormitorio 2 C -->
  <rect x="202" y="514" width="130" height="122" fill="none" stroke="#6EE7B7" stroke-width="1" stroke-dasharray="4"/>
  <text x="267" y="582" fill="#059669" font-family="Arial" font-size="10" text-anchor="middle">Dormitorio 2</text>

  <!-- Dormitorio 3 C -->
  <rect x="332" y="514" width="85" height="122" fill="none" stroke="#6EE7B7" stroke-width="1" stroke-dasharray="4"/>
  <text x="374" y="582" fill="#059669" font-family="Arial" font-size="9" text-anchor="middle">Dorm. 3</text>

  <!-- Baño C -->
  <rect x="272" y="434" width="80" height="60" fill="none" stroke="#6EE7B7" stroke-width="1" stroke-dasharray="4"/>
  <text x="312" y="470" fill="#059669" font-family="Arial" font-size="9" text-anchor="middle">Baño</text>

  <!-- Label Depto C -->
  <rect x="130" y="445" width="120" height="36" fill="#10B981" rx="8"/>
  <text x="190" y="469" fill="white" font-family="Arial" font-size="16" text-anchor="middle" font-weight="bold">DEPTO C</text>

  <!-- ============ DEPTO D (bottom-right) ============ -->
  <rect x="582" y="354" width="366" height="284" fill="#FCE7F3" stroke="#EC4899" stroke-width="2.5" rx="2" opacity="0.6"/>

  <!-- Living D -->
  <rect x="648" y="354" width="200" height="160" fill="none" stroke="#F9A8D4" stroke-width="1" stroke-dasharray="4"/>
  <text x="748" y="440" fill="#DB2777" font-family="Arial" font-size="11" text-anchor="middle">Living-Comedor</text>

  <!-- Cocina D -->
  <rect x="582" y="354" width="65" height="80" fill="none" stroke="#F9A8D4" stroke-width="1" stroke-dasharray="4"/>
  <text x="614" y="400" fill="#DB2777" font-family="Arial" font-size="10" text-anchor="middle">Cocina</text>

  <!-- Dormitorio D -->
  <rect x="582" y="514" width="180" height="122" fill="none" stroke="#F9A8D4" stroke-width="1" stroke-dasharray="4"/>
  <text x="672" y="582" fill="#DB2777" font-family="Arial" font-size="10" text-anchor="middle">Dormitorio</text>

  <!-- Baño D -->
  <rect x="582" y="434" width="65" height="60" fill="none" stroke="#F9A8D4" stroke-width="1" stroke-dasharray="4"/>
  <text x="614" y="470" fill="#DB2777" font-family="Arial" font-size="9" text-anchor="middle">Baño</text>

  <!-- Balcón D -->
  <rect x="848" y="354" width="100" height="20" fill="#FBCFE8" stroke="#EC4899" stroke-width="1"/>
  <text x="898" y="368" fill="#DB2777" font-family="Arial" font-size="9" text-anchor="middle">Balcón</text>

  <!-- Label Depto D -->
  <rect x="700" y="445" width="120" height="36" fill="#EC4899" rx="8"/>
  <text x="760" y="469" fill="white" font-family="Arial" font-size="16" text-anchor="middle" font-weight="bold">DEPTO D</text>

</svg>
